<svg id="Warstwa_1" data-name="Warstwa 1" xmlns="http://www.w3.org/2000/svg" viewBox="0 0 430.72 461.87"><defs><style>.cls-1{fill:#5056e1;}.cls-2{fill:#788cff;}.cls-3{fill:#b4c2ff;}</style></defs><path class="cls-1" d="M476.2,136.78h0l-25.91,26.09a27.86,27.86,0,0,0,1,40.14l.12.1a30.79,30.79,0,0,1,9.84,22.62,32.24,32.24,0,0,1-8.83,21.61h0L286.72,414.77V315.55a30.55,30.55,0,0,0-30.37-30.71H157.47l95.92-97.12h0a30.59,30.59,0,0,1,22.8-8.8A30.11,30.11,0,0,1,296,187.78l0,0h0a30.44,30.44,0,0,0,43.32,0l94-94.6h0a30.29,30.29,0,0,1,51.68,20.15A32,32,0,0,1,476.2,136.78Z" transform="translate(-62.35 -46.77)"/><path class="cls-1" d="M350.21,77.48a30.65,30.65,0,0,1-2.57,12.34,30.42,30.42,0,0,1-8.16,11.07,29.12,29.12,0,0,1-7,4.5,29.74,29.74,0,0,1-12.64,2.78,30.7,30.7,0,1,1,30.38-30.69Z" transform="translate(-62.35 -46.77)"/><path class="cls-2" d="M221,120.82A31.34,31.34,0,0,1,213,141.66h0l-1.54,1.55-87.2,88.12c-6.24,5.51-12.61,8.06-20.52,8.06A30.53,30.53,0,0,1,73.31,208.7c0-9.78,5.13-17.45,11.6-24.33l84.44-85.44C188.15,80,221.12,93.66,221,120.82Z" transform="translate(-62.35 -46.77)"/><path class="cls-1" d="M493.07,368.72A31.36,31.36,0,0,1,485,389.56h0l-1.53,1.55-87.2,88.12c-6.24,5.51-12.62,8.06-20.52,8.06a30.54,30.54,0,0,1-30.39-30.69c0-9.78,5.14-17.45,11.61-24.33L441.2,347l.2-.2a30.08,30.08,0,0,1,21.3-8.8A30.53,30.53,0,0,1,493.07,368.72Z" transform="translate(-62.35 -46.77)"/><path class="cls-2" d="M347.37,340.57a34,34,0,0,1-6.86,19.85l-3.71,3.78h0l-50.13,50.63v-.17L236.94,465l-133-126,53.44-54h0l33.42-33.84a30.81,30.81,0,0,1,22.56-10,30,30,0,0,1,19.5,7.17l3.76,3.79a27.57,27.57,0,0,0,39.32,0l15.38-15.55.17-.18,1-1,.16-.15a30.06,30.06,0,0,1,22.31-8.31,30.77,30.77,0,0,1,26.3,43,30.3,30.3,0,0,1-4.45,7.28c-.56.68-1.16,1.34-1.78,2a25.91,25.91,0,0,0,0,36.38l1.76,1.78A30.75,30.75,0,0,1,347.37,340.57Z" transform="translate(-62.35 -46.77)"/><path class="cls-3" d="M213.33,476.17A29.88,29.88,0,0,0,226,473.39a29.52,29.52,0,0,0,7-4.51c.25-.21.49-.43.73-.65l10-10.09,21.81-22.09,4.49-4.62h0a30.19,30.19,0,0,0,4.06-6.9,30.94,30.94,0,0,0-6.29-34l-.09-.09-2-2a27.94,27.94,0,0,1,0-39.24h0l2.82-2.85a23.77,23.77,0,0,0,2.56-3A30.81,30.81,0,0,0,248.63,295a31.2,31.2,0,0,0-24,9.06h0L204.6,324.09c-12.71,12.71-34.07,10-47.65-1.24h0c-5-3.6-11.69-6.47-18.3-6.47a32.32,32.32,0,0,0-19.73,7.42h0l-3.34,3.3L104.83,338h0l-.92.94,0,0a30.8,30.8,0,0,0-7,19.63v87a30.54,30.54,0,0,0,30.37,30.71h86.07" transform="translate(-62.35 -46.77)"/><path class="cls-1" d="M210.07,390.07A31.38,31.38,0,0,1,202,410.92h0l-1.53,1.54-87.2,88.12c-6.24,5.51-12.62,8.06-20.52,8.06A30.54,30.54,0,0,1,62.35,478c0-9.78,5.14-17.45,11.6-24.33.2-.19,84.27-85.25,84.45-85.43C177.19,349.27,210.16,362.91,210.07,390.07Z" transform="translate(-62.35 -46.77)"/></svg>